<svg viewBox="0 0 1008 1024" xmlns="http://www.w3.org/2000/svg">
  <path d="M85,0 91,11 65,39 64,76 27,77 0,101 0,125 65,190 64,334 0,397 0,413 64,352 66,487 127,515 66,541 64,677 0,616 0,631 64,694 65,839 0,904 0,927 26,952 65,954 65,990 93,1023 108,1023 179,951 321,952 390,1023 402,1023 340,953 475,951 503,888 531,951 665,953 603,1023 615,1023 686,951 826,951 897,1023 912,1023 941,990 941,954 981,951 1007,926 1007,904 942,841 941,696 1007,629 1007,614 942,676 941,544 879,513 941,485 942,352 1007,414 1007,399 940,330 941,189 1007,123 1007,103 981,78 941,75 941,39 915,11 919,0 889,0 896,10 826,78 686,78 617,10 623,0 607,0 604,14 666,76 531,78 503,141 474,78 339,76 400,15 398,0 383,0 389,10 320,78 178,77 111,11 116,0 Z M584,710 586,710 648,772 655,771 680,745 685,744 695,747 710,755 713,755 720,759 726,760 750,770 754,775 758,789 778,835 779,840 678,941 662,941 661,940 636,940 635,941 615,941 614,940 610,941 609,940 608,941 600,940 556,941 550,940 549,941 540,941 537,939 533,931 529,919 524,910 520,897 515,889 509,871 523,836 525,834 525,831 530,818 536,806 540,803 543,804 544,803 579,803 582,800 583,795 582,789 583,714 582,712 Z M76,712 80,710 173,803 179,803 207,790 236,779 237,784 231,795 224,816 216,832 214,843 308,938 308,940 172,941 102,1011 100,1011 76,987 77,960 75,942 68,940 30,940 6,916 8,911 76,843 Z M928,708 930,710 930,843 965,880 999,912 1000,916 976,940 933,940 929,945 929,987 905,1011 903,1011 833,941 698,941 697,938 791,844 791,837 781,816 768,780 770,779 796,789 821,801 832,803 Z M421,708 423,710 423,758 424,759 423,798 427,803 467,803 470,807 476,825 482,835 485,846 496,870 493,881 480,909 478,918 470,936 466,940 458,941 432,941 431,940 410,940 409,941 390,941 389,940 346,941 341,940 334,941 326,940 227,841 227,836 234,817 238,811 252,775 257,770 322,743 346,767 353,772 357,772 Z M504,628 505,630 506,630 513,637 513,638 514,638 516,641 519,643 520,645 525,650 526,650 570,695 571,697 571,702 572,703 571,704 572,705 571,706 571,791 570,792 532,792 530,793 527,797 527,799 525,802 525,805 521,812 521,814 519,816 519,818 513,830 513,833 508,844 507,849 505,853 502,855 498,846 498,844 495,840 493,833 490,829 488,821 484,814 483,809 479,802 479,800 477,796 474,793 472,792 436,792 434,790 434,697 435,696 435,694 445,684 446,684 468,661 472,659 488,641 492,639 492,638 501,629 Z M585,594 593,594 594,593 602,593 603,594 636,594 637,593 648,593 649,594 655,594 656,593 657,594 678,594 679,595 681,595 684,599 686,600 687,602 689,603 690,605 696,611 697,611 698,613 701,615 744,659 746,660 745,665 740,670 739,670 739,671 732,678 731,678 731,679 726,684 725,684 720,690 720,697 723,702 723,704 726,709 728,716 731,721 732,727 734,730 736,737 743,750 744,754 742,756 728,749 726,749 724,747 718,746 704,739 702,739 700,737 696,736 689,732 681,730 675,734 675,735 663,747 662,747 652,758 650,758 648,757 647,755 583,692 582,690 582,683 583,682 583,661 582,660 582,637 583,636 582,598 Z M537,594 550,594 551,593 567,593 568,594 569,594 571,596 571,675 570,676 568,676 566,674 565,674 564,673 564,672 563,672 554,663 554,662 544,652 543,652 542,651 542,650 540,648 539,648 531,640 531,639 523,631 522,631 520,629 520,628 519,627 518,627 512,621 512,619 513,618 513,617 530,600 530,599 532,597 533,597 535,595 536,595 Z M470,594 475,599 475,600 482,607 483,607 494,618 493,619 493,620 492,621 492,622 476,638 476,639 475,640 474,640 473,641 472,641 470,643 470,644 462,652 461,652 461,653 460,654 460,655 459,656 458,656 458,657 456,659 455,659 446,668 445,668 444,669 444,670 442,672 441,672 438,675 438,676 437,677 436,677 435,678 434,677 434,660 435,659 434,658 434,635 433,634 434,633 434,596 436,594 465,594 466,593 467,593 468,594 Z M423,595 423,619 424,620 424,637 423,638 423,668 424,669 424,682 423,683 423,689 421,693 419,694 416,698 413,700 412,702 384,729 383,731 382,731 365,748 364,748 364,749 356,757 352,756 349,752 348,752 345,748 344,748 341,744 338,742 329,732 327,731 321,731 306,738 300,739 295,742 293,742 291,744 284,746 282,748 279,748 274,751 269,752 267,754 264,754 263,753 263,750 265,747 265,744 266,743 267,738 269,735 271,728 275,723 275,721 279,713 281,705 285,698 286,691 275,679 275,678 263,667 259,662 259,660 277,642 278,642 278,641 281,639 281,638 293,626 294,626 295,624 297,623 297,622 301,619 301,618 309,610 310,610 311,608 313,607 325,594 327,594 328,593 344,593 345,594 369,594 370,593 418,594 420,593 Z M583,548 584,547 584,546 593,537 593,536 596,533 597,533 607,523 608,523 609,524 610,524 620,534 620,535 621,535 631,545 631,546 632,547 633,547 640,554 640,555 645,560 646,560 647,561 647,562 648,563 649,563 662,576 662,577 665,580 663,582 658,582 657,583 656,582 655,582 654,583 637,583 636,582 611,582 610,583 609,583 608,582 607,583 595,583 594,582 584,582 583,581 583,580 582,579 583,578 583,577 582,576 582,555 583,554 Z M423,547 423,581 422,582 420,582 419,583 418,583 417,582 414,582 413,583 411,583 410,582 391,582 390,583 389,582 388,583 368,583 367,582 344,582 343,583 342,583 341,582 340,582 339,581 339,580 340,579 341,579 346,574 346,573 362,557 363,557 371,549 371,548 372,547 373,547 373,546 384,535 385,535 389,531 389,530 392,527 393,527 393,526 395,524 396,524 397,523 399,523 Z M862,521 928,548 930,551 930,579 929,580 930,581 929,582 930,583 929,585 930,588 929,592 930,595 930,618 929,619 929,633 930,634 929,683 930,690 832,789 825,790 818,786 795,778 787,773 769,767 763,764 759,760 749,739 732,695 742,683 758,668 761,663 761,660 697,595 698,594 723,594 724,593 744,593 745,594 789,593 791,592 793,586 792,584 793,582 792,553 794,548 803,545 823,535 845,527 852,523 Z M143,521 148,521 213,549 213,589 214,592 216,593 238,593 239,594 291,593 307,595 304,600 245,659 245,665 247,668 273,694 260,730 257,733 252,746 252,749 246,762 239,766 233,767 220,774 213,775 209,778 204,779 202,781 197,782 195,784 177,791 76,690 77,682 76,552 77,549 83,545 106,537 Z M617,512 632,497 633,497 655,475 655,474 657,473 658,471 681,449 682,447 686,445 701,445 702,446 723,446 724,445 729,445 730,446 735,446 736,445 745,445 746,446 747,445 749,446 750,445 751,446 766,446 767,445 779,445 781,447 781,474 782,475 782,485 783,487 789,491 791,491 801,496 806,497 825,506 841,511 845,514 842,517 839,517 836,519 828,521 818,526 811,528 804,532 791,536 783,541 782,546 781,547 781,551 782,552 782,554 781,555 781,581 779,583 768,583 767,582 744,582 743,583 741,583 740,582 736,582 735,583 734,582 733,583 724,583 723,582 703,582 702,583 687,583 686,582 684,582 679,577 679,576 678,576 661,559 660,559 659,557 633,531 632,531 626,524 624,523 624,522 617,515 Z M583,481 583,474 582,473 582,453 583,452 583,447 584,446 594,446 595,445 609,445 610,446 611,445 612,446 628,446 629,445 657,445 658,446 664,446 665,447 665,448 662,451 662,452 648,466 647,466 646,467 646,468 644,470 643,470 642,471 642,472 637,477 636,477 633,480 633,481 628,486 627,486 626,487 626,488 622,492 621,492 621,493 610,504 609,504 608,505 607,504 606,504 585,483 585,482 584,482 Z M340,447 342,445 343,445 344,446 366,446 367,445 388,445 389,446 410,446 411,445 414,445 415,446 416,445 417,445 418,446 422,446 423,447 423,481 411,493 410,493 408,495 408,496 399,505 396,505 391,500 391,499 389,497 388,497 374,483 374,482 373,482 349,458 349,457 340,448 Z M162,514 165,511 168,511 169,510 174,509 183,504 187,503 189,501 191,501 200,497 202,497 205,495 210,494 220,489 223,486 224,484 224,461 225,460 224,447 227,445 236,445 237,446 258,446 259,445 303,446 304,445 320,445 322,446 325,450 327,451 347,471 347,472 349,473 358,482 358,483 359,483 366,490 366,491 388,512 388,516 383,521 382,521 377,526 377,527 374,529 372,532 327,576 325,579 321,582 317,582 316,583 315,582 314,583 313,582 312,583 311,582 301,582 300,583 297,583 296,582 295,583 294,582 287,582 286,583 282,583 281,582 248,582 247,583 236,583 235,582 234,583 233,582 227,582 224,579 224,543 223,541 217,537 214,537 198,529 192,528 169,517 163,516 Z M502,418 506,420 529,444 533,446 534,445 535,446 549,446 550,445 564,445 565,446 568,445 571,447 571,483 572,484 572,487 580,495 581,495 598,513 597,517 595,518 595,519 572,541 572,544 571,545 571,581 569,583 566,583 565,582 557,582 556,583 551,583 550,582 533,582 528,585 528,586 515,599 514,599 514,600 505,609 503,610 501,610 482,590 472,582 466,582 465,583 462,582 436,582 434,580 434,544 428,536 426,535 423,530 422,530 407,515 407,512 409,511 425,495 425,494 429,491 430,489 431,489 434,484 434,448 436,446 460,446 461,445 467,445 470,446 471,445 474,445 476,444 495,425 495,424 Z M570,351 571,352 571,433 569,435 561,435 560,434 559,435 551,435 550,434 537,434 536,433 535,433 531,429 530,429 525,424 525,423 515,413 515,412 514,412 513,411 513,410 512,409 512,408 515,405 515,404 516,403 517,403 557,363 557,362 561,358 562,358 569,351 Z M435,351 436,351 437,352 438,352 439,353 439,354 440,355 441,355 444,358 444,359 445,359 461,375 461,376 472,387 473,387 474,388 475,388 476,389 476,390 483,397 483,398 488,403 489,403 492,406 492,407 494,409 494,410 482,422 481,422 481,423 478,426 477,426 475,428 475,429 470,434 467,434 466,435 465,434 464,435 461,435 460,434 436,434 434,432 434,375 435,374 435,373 434,372 434,368 435,367 434,366 434,352 Z M264,274 268,275 273,278 278,279 299,289 303,289 317,296 325,298 331,294 332,292 335,290 335,289 338,287 339,285 353,271 357,271 375,290 375,291 383,297 384,299 388,302 391,307 392,307 411,325 411,326 422,337 423,344 424,345 424,362 423,363 423,397 424,398 424,407 423,408 423,433 420,435 417,435 416,434 414,435 413,434 389,434 388,435 345,434 344,435 327,435 325,434 321,429 320,429 317,425 306,414 305,414 295,404 295,403 293,402 292,400 267,376 264,372 259,368 260,364 279,346 286,337 286,334 285,333 284,328 281,323 281,321 279,319 279,316 276,311 275,306 271,300 271,298 268,293 267,288 264,283 264,280 262,276 Z M743,273 744,274 744,277 740,283 740,285 733,300 733,304 730,309 730,311 727,316 727,318 723,324 723,327 720,333 720,337 726,345 727,345 729,348 730,348 744,362 744,363 746,364 746,368 734,380 733,380 733,381 718,396 716,397 716,398 705,409 705,410 703,412 700,413 680,434 657,434 656,435 637,435 636,434 610,434 609,435 607,434 603,434 602,435 594,435 593,434 585,434 582,430 582,409 583,408 583,393 582,392 583,345 582,344 582,340 583,339 583,337 593,327 594,327 598,323 598,322 639,281 640,281 640,280 650,270 656,274 657,276 680,298 684,298 687,296 692,295 701,291 703,289 705,289 717,283 723,282 728,279 730,279 737,275 739,275 Z M825,239 831,239 930,338 929,344 930,348 929,350 930,351 929,352 930,358 930,400 929,401 930,403 930,447 929,448 930,477 927,481 892,495 883,500 869,504 864,507 858,507 852,504 849,504 843,500 815,490 805,484 802,484 794,480 792,475 793,442 791,436 789,435 767,435 766,434 724,435 723,434 699,434 698,433 708,421 760,369 761,366 758,360 733,335 733,331 736,326 737,320 759,268 762,265 770,261 781,258 794,251 807,246 810,246 Z M180,238 188,243 198,246 205,250 219,254 229,260 240,263 247,268 263,309 269,321 269,324 272,330 272,335 264,345 246,362 245,368 260,385 301,425 307,433 304,435 303,434 217,435 213,439 213,479 206,483 203,483 189,489 181,494 163,500 152,506 144,508 130,501 124,500 115,495 80,482 77,479 76,476 76,447 77,446 77,432 76,431 77,349 76,348 76,338 176,238 Z M502,174 504,175 505,179 510,188 510,190 512,192 512,194 516,202 517,207 520,212 522,220 528,232 531,235 533,236 534,235 535,236 537,235 539,235 540,236 541,235 543,236 569,236 571,238 571,315 572,316 571,330 569,335 566,337 559,346 557,347 551,354 550,354 542,362 541,362 528,376 528,377 524,379 504,400 501,399 486,384 485,384 480,377 479,377 467,365 466,365 451,349 451,348 443,342 435,334 435,330 434,329 434,326 435,325 434,324 435,323 434,322 434,238 436,236 474,236 478,232 481,226 482,220 487,211 489,204 491,202 496,186 Z M536,91 539,88 549,88 550,89 678,88 680,89 779,188 776,200 767,219 765,227 757,242 757,242 757,242 752,256 746,260 726,267 718,272 698,279 686,285 681,284 655,258 648,257 624,281 620,283 610,295 585,320 583,320 582,319 582,303 583,302 582,229 578,225 566,225 565,224 563,225 538,225 533,217 529,203 523,192 518,180 518,177 509,158 Z M326,89 348,89 349,88 350,89 351,88 366,88 367,89 457,88 458,89 467,89 472,97 475,107 477,109 483,123 483,126 488,134 488,137 495,153 496,159 493,164 490,175 486,182 476,209 469,223 467,225 465,224 463,225 426,225 423,229 424,296 423,297 423,316 421,318 409,308 357,256 351,257 323,285 318,284 298,275 288,272 275,265 272,265 267,262 257,259 254,256 239,223 237,215 230,201 227,188 Z M700,89 830,89 839,83 904,18 907,19 930,43 929,77 930,85 933,88 974,88 992,104 1000,114 930,185 930,302 928,319 916,309 833,226 826,226 771,250 767,249 779,222 781,213 790,195 792,187 791,184 699,91 Z M306,89 306,93 219,179 214,186 215,193 238,248 234,250 180,226 173,226 78,320 76,315 76,186 74,182 7,116 6,113 26,92 32,88 73,88 76,85 76,44 80,37 100,18 103,18 174,89 Z" fill="#2CB79A" fill-rule="evenodd" />
</svg>